# xmcd
# 
# Track frame offsets:
#     150
#     15963
#     32108
#     49355
#     67423
#     83643
#     103752
#     123453
#     137835
#     155280
#     178438
#     195625
#     211420
#     232590
# 
# Disc length: 3379
# 
# Revision: 9
# Processed by: cddbd v1.5.2PL0 Copyright (c) Steve Scherf et al.
# Submitted via: BonkEnc v1.0.6
# 
DISCID=c20d310e
DTITLE=Fabio Junior - Acústico
DYEAR=2002
DGENRE=Pop
TTITLE0=Em cada amanhecer
TTITLE1=Enrosca
TTITLE2=Eu me rendo
TTITLE3=Minha outra metade
TTITLE4=20 e poucos anos
TTITLE5=Caça e caçador
TTITLE6=Coração dividido
TTITLE7=Esqueça
TTITLE8=Seu melhor amigo
TTITLE9=Pai
TTITLE10=Só você
TTITLE11=Se quiser vai
TTITLE12=O que é que  há - Pareço um menino - Quando gira o mundo
TTITLE13=Sem Limites Pra Sonhar/Alma Gêmea/Felicidade
EXTD=
EXTT0=
EXTT1=
EXTT2=
EXTT3=
EXTT4=
EXTT5=
EXTT6=
EXTT7=
EXTT8=
EXTT9=
EXTT10=
EXTT11=
EXTT12=
EXTT13=
PLAYORDER=
